<svg id="Layer_1" xmlns="http://www.w3.org/2000/svg" viewBox="0 0 250 70.2"><style>.st0,.st1{fill-rule:evenodd;clip-rule:evenodd;fill:#231f20}.st1{fill:#006a9c}</style><g id="XMLID_1_"><path class="st0" d="M107 31.3h-6v11.8h-6V31.3h-5.5v-4.1H107v4.1zm20-4v4h-13v1.9h5.9v4H114v1.9h13v4h-19V27.3h19zm20.1 15.9h-13.3c-1.3 0-2.3-.1-3-.2-1.1-.2-1.9-.5-2.4-1.1-.5-.6-.7-1.4-.7-2.5v-8.3c0-1.1.2-2 .7-2.5.5-.6 1.3-.9 2.4-1.1.7-.1 1.7-.2 3-.2h13.3v4h-11.6c-1.2 0-1.7.4-1.7 1.1v5.7c0 .7.6 1.1 1.7 1.1h11.6v4zm19.8-15.9v15.8h-6v-5.9H154v5.9h-6.1V27.3h6.1v5.9h6.9v-5.9h6z"/><path class="st1" d="M188.7 43.2h-6.4l-6.2-7v7h-6V27.3h5.7l6.9 8.2v-8.2h6.1v15.9h-.1zm20.7 0h-12.7c-1.2 0-2.2 0-2.8-.1-1.2-.2-2-.5-2.5-1.1-.5-.6-.7-1.4-.7-2.6v-.6c0-1.2.2-2 .7-2.4.4-.4 1.3-.6 2.5-.6h9.5c0-.5-.2-.8-.6-1-.2-.1-.6-.1-1.2-.1h-10.2V31h11.9c1.2 0 2.2.1 2.8.2 1.2.1 2 .5 2.5 1.1.5.6.8 1.4.8 2.6v8.3zm-6.1-3.8v-1.2H197c-.4 0-.5.2-.5.6 0 .4.2.6.5.6h6.3zm27.4-8.5L224 43.2h-7.5l-6.7-12.3h6.8l3.6 7.7 3.7-7.7h6.8zM250 44.8c0 1.1-.2 2-.7 2.5-.5.6-1.3.9-2.4 1.1-.7.1-1.7.2-3 .2h-3.3v-4h3c.2 0 .3-.3.3-.8v-.6h-6.6c-1.3 0-2.3-.1-3-.2-1.1-.2-1.9-.5-2.4-1.1-.5-.6-.7-1.4-.7-2.5V31h6v7.4c0 .4.2.7.5.8h6V31h6v13.8z"/><path id="XMLID_3_" class="st0" d="M36.8 0c1.2 0 2.3.1 3.4.2-15.9 8-26.8 24.4-26.8 43.3 0 9.9 3 19.1 8 26.7C8.8 64.4 0 51.6 0 36.8 0 16.5 16.5 0 36.8 0z"/><path id="XMLID_2_" class="st1" d="M46.2 1.2c15.7 4.2 27.3 18.5 27.3 35.5 0 10.5-4.4 20-11.4 26.7-16.3-3.2-28.6-17.6-28.6-34.9 0-10.9 4.9-20.7 12.7-27.3z"/></g></svg>